<?xml version="1.0" standalone="no"?>
<!DOCTYPE svg PUBLIC "-//W3C//DTD SVG 20010904//EN"
 "http://www.w3.org/TR/2001/REC-SVG-20010904/DTD/svg10.dtd">
<svg version="1.0" xmlns="http://www.w3.org/2000/svg"
 width="16.000000pt" height="16.000000pt" viewBox="0 0 16.000000 16.000000"
 preserveAspectRatio="xMidYMid meet">
<metadata>
Created by potrace 1.11, written by Peter Selinger 2001-2013
</metadata>
<g transform="translate(0.000000,16.000000) scale(0.005333,-0.005333)"
fill="#000000" stroke="none">
<path d="M1285 2936 c-319 -53 -587 -189 -810 -411 -201 -200 -333 -445 -397
-733 -32 -141 -32 -443 0 -584 114 -513 471 -917 955 -1082 165 -57 255 -70
467 -70 212 0 302 13 467 70 422 144 763 485 907 907 57 165 70 255 70 467 0
163 -3 211 -22 292 -128 576 -554 1003 -1125 1129 -119 26 -395 34 -512 15z
m455 -171 c162 -32 332 -102 475 -196 103 -68 286 -251 354 -354 97 -149 172
-335 202 -505 17 -96 17 -334 0 -430 -30 -170 -105 -356 -202 -505 -68 -103
-251 -286 -354 -354 -149 -97 -335 -172 -505 -202 -96 -17 -334 -17 -430 0
-170 30 -356 105 -505 202 -103 68 -286 251 -354 354 -97 149 -172 335 -202
505 -17 96 -17 334 0 430 30 170 105 356 202 505 68 103 251 286 354 354 152
100 347 177 505 200 41 6 86 13 100 15 47 9 285 -4 360 -19z"/>
<path d="M783 2045 c-228 -50 -383 -263 -383 -524 1 -251 129 -445 340 -512
91 -30 242 -29 325 0 153 54 250 169 285 335 17 84 13 87 -129 84 l-115 -3 -8
-42 c-38 -225 -337 -233 -414 -12 -26 73 -26 223 0 298 43 126 179 193 294
145 52 -21 101 -72 113 -116 l10 -38 120 0 c140 0 141 0 115 93 -62 224 -297
348 -553 292z"/>
<path d="M1424 1745 c-3 -8 45 -177 107 -375 l114 -360 120 2 120 3 51 200
c28 110 54 193 57 185 4 -8 28 -98 55 -200 l49 -185 119 -3 119 -2 113 360
c63 199 111 368 108 376 -4 11 -29 14 -120 14 l-114 0 -19 -72 c-11 -40 -35
-130 -54 -200 -19 -71 -36 -128 -39 -128 -3 0 -28 89 -55 198 l-50 197 -114 0
-115 0 -49 -205 c-28 -113 -52 -198 -55 -190 -3 8 -29 101 -57 205 l-51 190
-117 3 c-98 2 -118 0 -123 -13z"/>
</g>
</svg>
